PathFileType	4	(X/Y/Z)	Patient4_TMGait_0pt5_02_right_25.trc.trc
DataRate	CameraRate	NumFrames	NumMarkers	Units	OrigDataRate	OrigDataStartFrame	OrigNumFrames
76.923076923077	76.923076923077	4	33	mm	76.923076923077	18	       141
Frame#	Time	Sacral			L.Shoulder			Chest			R.Shoulder			Neck			R.ASIS			L.ASIS			R.Thigh.Superior			R.Thigh.Lateral			R.Thigh.Inferior			R.Patella			L.Thigh.Superior			L.Thigh.Lateral			L.Thigh.Inferior			L.Patella			L.Shank.Superior			L.Shank.Lateral			L.Shank.Inferior			R.Shank.Superior			R.Shank.Lateral			R.Shank.Inferior			R.Heel			R.Midfoot.Superior			R.Midfoot.Lateral			R.Toe			L.Heel			L.Midfoot.Lateral			L.Midfoot.Superior			L.Toe			L.Elbow			L.Wrist			R.Elbow			R.Wrist			
		X1	Y1	Z1	X2	Y2	Z2	X3	Y3	Z3	X4	Y4	Z4	X5	Y5	Z5	X6	Y6	Z6	X7	Y7	Z7	X8	Y8	Z8	X9	Y9	Z9	X10	Y10	Z10	X11	Y11	Z11	X12	Y12	Z12	X13	Y13	Z13	X14	Y14	Z14	X15	Y15	Z15	X16	Y16	Z16	X17	Y17	Z17	X18	Y18	Z18	X19	Y19	Z19	X20	Y20	Z20	X21	Y21	Z21	X22	Y22	Z22	X23	Y23	Z23	X24	Y24	Z24	X25	Y25	Z25	X26	Y26	Z26	X27	Y27	Z27	X28	Y28	Z28	X29	Y29	Z29	X30	Y30	Z30	X31	Y31	Z31	X32	Y32	Z32	X33	Y33	Z33	

18	32.811000000000	553.604459053247	1000.759159583750	431.964007881526	743.730854299149	1415.542000167553	235.937744949711	823.721930575676	1363.508688141461	415.273595260504	716.453429105098	1453.339101646381	569.046680188704	722.761433776149	1490.406167114115	378.640421354153	768.866231291574	946.682920558810	571.728672780123	782.208146402409	958.558499474691	295.808696035396	846.531259904271	770.655625578658	555.035373597402	796.541572122749	646.758904313281	622.546146111742	891.768039036044	609.825960072556	550.403309434520	924.225103311985	527.070149007431	567.236162738379	786.718879163703	735.496208898007	327.685562458580	673.545808908857	637.169806404515	264.955486435560	734.857902236709	546.937736263288	331.107187851604	719.933951162974	479.542685105374	341.828929093761	689.307709791596	412.459879478807	334.851359419472	589.455567442233	304.427260865501	287.478735505845	633.223938487714	191.712504794644	362.637936472733	911.010783733363	440.454297290331	573.973625471977	858.278557680018	324.946355522141	632.845458294555	933.247541256713	241.746158694407	585.427802791751	846.772257069069	54.924573644435	550.142610623450	1006.579697097565	127.649010089538	597.785932031526	928.158992282606	50.993335767088	627.338580142232	1130.399799945847	91.027333624268	629.526351824514	497.547016423162	39.382256423043	413.001444708081	570.625645798645	34.655718045117	331.764566965955	654.901301577704	95.285594180598	355.950211708735	782.429005771105	42.233534361969	328.490099094540	803.726869061483	1068.877777282122	119.986390924604	1044.637698426955	977.006587265458	142.202378098111	558.818978823025	1160.489338083467	699.203115331552	524.850463879389	905.213444227238	743.080351241127	
19	32.824000000000	554.507321201957	999.493963330185	433.932939046514	742.683430173699	1414.886733296957	237.845847850268	823.397160342642	1362.896052884420	416.877489621909	716.299597557147	1452.084810639541	571.142633842355	721.830851003230	1489.400529049479	380.798308458493	770.311075265107	945.237775522431	572.943927934704	782.773245108655	957.627313910379	296.887241872690	847.356613888482	768.118128564171	556.207146377073	795.668897780242	644.218859415388	622.728708974683	890.793176585119	607.029778576009	550.795142178063	922.265335461690	524.465918347201	566.706861832010	785.696737732092	734.114009172122	328.413532990644	671.469914707542	636.710914870961	265.770485544310	732.017922782304	545.898107573430	331.756977383670	716.531911704841	478.457914378830	342.434156060775	685.377707738448	411.691631260156	335.358211803797	584.599193998664	304.494372469657	287.915147530802	627.458080910775	191.302999908564	362.837792685681	909.027158856541	437.524005287063	573.286305421720	856.151305935754	322.033912446678	631.867843265543	930.783472628527	238.828294868179	584.118873973489	843.487948522290	53.058373319863	548.574957897046	1003.912801489810	124.418741520793	596.129148389118	924.784752440157	48.662429622898	625.813017393860	1127.329138923051	86.625343684847	627.839158376124	490.985045435388	39.354837551686	412.990975465327	564.048266168202	34.631192566254	331.781588548425	648.330156267287	95.227228816955	356.009534384897	775.841877289966	42.151298186212	328.513905688554	801.717320702055	1067.718452524027	122.444269371299	1042.110443534383	974.143338206725	145.182545936967	560.293756345573	1158.286625394317	701.200211999771	529.302478746227	902.393228000191	744.125757706504	
20	32.837000000000	555.576376716150	998.180870498808	436.116073566252	741.625390161454	1414.191401906481	239.999193180862	823.188019877248	1362.233594717741	418.668121406460	716.300660582640	1450.688446653647	573.513444773874	720.962277476645	1488.320902607208	383.226540392964	772.002789452168	943.614278115869	574.188798035215	783.403847436914	956.592720420035	298.023233782864	848.383229079466	765.433471286892	557.141813920538	795.026366479496	641.633055690261	622.707002347821	889.906726516124	604.181831997225	550.795013449340	920.287793090905	521.620439309207	565.782166160146	784.904621590703	732.637389361262	329.107572196566	669.645403925732	636.127311290818	266.688066161005	729.540258653074	544.751250795662	332.442653048734	713.505801827502	477.213681867613	343.128908534608	681.756633004866	410.761979369975	335.962432119129	579.963671849013	304.505192537178	288.439926312350	621.796006654505	190.805548490469	363.103506170653	906.726893311393	434.210056847202	572.317876314332	853.247124896752	318.957076563901	630.657838213200	927.109185754502	235.431108302981	582.483325723209	838.132007915878	51.096107038704	546.846087388387	999.428690735639	120.703899150815	594.158793599895	919.337744845683	46.201813571599	624.157201677436	1122.341428873010	81.383703519384	625.875343228662	484.422178263304	39.290938267199	412.983880216718	557.474171582429	34.595645152963	331.805729814426	641.750118214784	95.162334645582	356.095655876148	769.258825513664	42.054737220355	328.534664034046	799.229011589186	1066.462278580430	124.943468750999	1038.890051702848	970.482929099739	148.055508198590	562.343911324132	1155.651793610459	703.482844877320	535.008380694826	899.055994034410	745.235132016844	
21	32.850000000000	556.793233990477	996.859508488933	438.486822531755	740.569547249536	1413.482795744889	242.402277306858	823.110865751081	1361.542193546914	420.643797422127	716.487388556982	1449.178422521735	576.157670613401	720.187972570622	1487.205117898178	385.926610895470	773.920662631200	941.859610445443	575.454492861509	784.091611534559	955.472637762782	299.221762659654	849.565608060845	762.636999193425	557.817238908266	794.577949155214	639.073005222093	622.502961915142	889.056123521298	601.341210370886	550.398589399171	918.243572847134	518.612937951170	564.467946078135	784.357985489576	731.089258949521	329.801385921065	668.099224283616	635.425003871177	267.727974974160	727.445425325502	543.507984323061	333.202769648109	710.888358186590	475.811235383018	343.937862369441	678.460485721685	409.677804151957	336.688004361662	575.558429549846	304.477307144716	289.075771201327	616.246584276645	190.234534587662	363.449529530116	904.163052859225	430.649846287225	571.115944159887	849.768945091309	315.798706058684	629.300895303323	922.526638874446	231.721235720226	580.607321457498	831.218017187197	49.094719525940	545.099326987692	993.559070201325	116.737622362062	591.962324252217	912.360383007366	43.755504336559	622.483434772205	1115.929206879798	75.700244475486	623.681437880673	477.858468120626	39.212655965291	412.982268962209	550.908291701313	34.559306648581	331.842308849541	635.172038981823	95.097291915975	356.211905250502	762.687077363639	41.934935071989	328.551318639905	796.290525083598	1065.142564675497	127.489462554261	1034.950230984292	966.004685874917	150.790604454016	564.979874998863	1152.640641816700	706.044988698190	541.913401961697	895.293796871020	746.406992689761	
